<mxfile host="app.diagrams.net" modified="2022-09-14T15:57:33.686Z" agent="5.0 (Windows NT 10.0; Win64; x64) AppleWebKit/537.36 (KHTML, like Gecko) Chrome/105.0.0.0 Safari/537.36" etag="T3BCkhDoC8pFRE5CWves" version="20.3.0" type="github">
  <diagram id="7z78vcRJwoHjMP4bkD24" name="Page-1">
    <mxGraphModel dx="2076" dy="742" grid="0" gridSize="10" guides="1" tooltips="1" connect="1" arrows="1" fold="1" page="0" pageScale="1" pageWidth="850" pageHeight="1100" math="0" shadow="0">
      <root>
        <mxCell id="0" />
        <mxCell id="1" parent="0" />
        <mxCell id="wH5RqpElglhxuyfyvfox-1" value="&lt;h4 style=&quot;margin: 1.357em 0px 0px; padding: 0px; font-size: 16px; line-height: 1.428; color: rgb(23, 43, 77); letter-spacing: -0.003em; font-family: -apple-system, BlinkMacSystemFont, &amp;quot;Segoe UI&amp;quot;, Roboto, Oxygen, Ubuntu, &amp;quot;Fira Sans&amp;quot;, &amp;quot;Droid Sans&amp;quot;, &amp;quot;Helvetica Neue&amp;quot;, sans-serif; text-align: start;&quot; data-renderer-start-pos=&quot;1753&quot; id=&quot;Spatial(S)DNS----H3-indexing-â€“-A-lot-of-the-work-would-support-this-project,-but-the-end-would-have-to-lead-into-the--SDNS&quot;&gt;&lt;span style=&quot;cursor: pointer; border-bottom-width: 2px; border-bottom-style: solid; border-bottom-color: rgba(255, 196, 0, 0.82);&quot; class=&quot;inline-highlight&quot; data-id=&quot;642e6865-7614-46b1-a37f-4f377f6b59a0&quot; data-mark-annotation-type=&quot;inlineComment&quot; data-mark-type=&quot;annotation&quot; data-renderer-mark=&quot;true&quot; id=&quot;642e6865-7614-46b1-a37f-4f377f6b59a0&quot;&gt;&amp;nbsp; Spatial(S)DNS&amp;nbsp;&lt;/span&gt;&lt;/h4&gt;" style="rounded=0;whiteSpace=wrap;html=1;hachureGap=4;fillColor=#dae8fc;strokeColor=#6c8ebf;" parent="1" vertex="1">
          <mxGeometry x="633" y="513" width="195" height="118" as="geometry" />
        </mxCell>
        <mxCell id="9oQ9O6FbsVemTm-6UywY-15" style="edgeStyle=none;curved=1;rounded=0;orthogonalLoop=1;jettySize=auto;html=1;exitX=0.5;exitY=0;exitDx=0;exitDy=0;entryX=0.5;entryY=1;entryDx=0;entryDy=0;endArrow=open;startSize=14;endSize=14;sourcePerimeterSpacing=8;targetPerimeterSpacing=8;" parent="1" source="wH5RqpElglhxuyfyvfox-5" target="9oQ9O6FbsVemTm-6UywY-1" edge="1">
          <mxGeometry relative="1" as="geometry" />
        </mxCell>
        <mxCell id="wH5RqpElglhxuyfyvfox-5" value="&lt;h4 style=&quot;margin: 10px 0px 0px; padding: 0px; font-size: 16px; line-height: 1.428; color: rgb(23, 43, 77); letter-spacing: -0.003em; font-family: -apple-system, BlinkMacSystemFont, &amp;quot;Segoe UI&amp;quot;, Roboto, Oxygen, Ubuntu, &amp;quot;Fira Sans&amp;quot;, &amp;quot;Droid Sans&amp;quot;, &amp;quot;Helvetica Neue&amp;quot;, sans-serif;&quot; data-renderer-start-pos=&quot;2112&quot; id=&quot;Contracts-as-optimization-constraints&quot;&gt;Contracts as optimization constraints&lt;/h4&gt;" style="rounded=0;whiteSpace=wrap;html=1;hachureGap=4;fillColor=#d5e8d4;strokeColor=#82b366;align=center;" parent="1" vertex="1">
          <mxGeometry x="932" y="1126.5" width="193" height="129" as="geometry" />
        </mxCell>
        <mxCell id="9oQ9O6FbsVemTm-6UywY-14" style="edgeStyle=none;curved=1;rounded=0;orthogonalLoop=1;jettySize=auto;html=1;exitX=0.5;exitY=0;exitDx=0;exitDy=0;entryX=0.5;entryY=1;entryDx=0;entryDy=0;endArrow=open;startSize=14;endSize=14;sourcePerimeterSpacing=8;targetPerimeterSpacing=8;" parent="1" source="wH5RqpElglhxuyfyvfox-6" target="wH5RqpElglhxuyfyvfox-7" edge="1">
          <mxGeometry relative="1" as="geometry" />
        </mxCell>
        <mxCell id="wH5RqpElglhxuyfyvfox-6" value="&lt;h4 style=&quot;margin: 1.357em 0px 0px; padding: 0px; font-size: 16px; line-height: 1.428; color: rgb(23, 43, 77); letter-spacing: -0.003em; font-family: -apple-system, BlinkMacSystemFont, &amp;quot;Segoe UI&amp;quot;, Roboto, Oxygen, Ubuntu, &amp;quot;Fira Sans&amp;quot;, &amp;quot;Droid Sans&amp;quot;, &amp;quot;Helvetica Neue&amp;quot;, sans-serif;&quot; data-renderer-start-pos=&quot;2159&quot; id=&quot;Separation-of-spatial-/-time-scales&quot;&gt;Separation of spatial / time scales&lt;/h4&gt;" style="rounded=0;whiteSpace=wrap;html=1;hachureGap=4;fillColor=#d5e8d4;strokeColor=#82b366;align=center;" parent="1" vertex="1">
          <mxGeometry x="643" y="1316" width="191" height="126" as="geometry" />
        </mxCell>
        <mxCell id="9oQ9O6FbsVemTm-6UywY-11" style="edgeStyle=none;curved=1;rounded=0;orthogonalLoop=1;jettySize=auto;html=1;exitX=0.5;exitY=0;exitDx=0;exitDy=0;entryX=0.5;entryY=1;entryDx=0;entryDy=0;endArrow=open;startSize=14;endSize=14;sourcePerimeterSpacing=8;targetPerimeterSpacing=8;" parent="1" source="wH5RqpElglhxuyfyvfox-7" target="wH5RqpElglhxuyfyvfox-8" edge="1">
          <mxGeometry relative="1" as="geometry" />
        </mxCell>
        <mxCell id="9oQ9O6FbsVemTm-6UywY-16" style="edgeStyle=none;curved=1;rounded=0;orthogonalLoop=1;jettySize=auto;html=1;exitX=1;exitY=0.5;exitDx=0;exitDy=0;endArrow=open;startSize=14;endSize=14;sourcePerimeterSpacing=8;targetPerimeterSpacing=8;" parent="1" source="wH5RqpElglhxuyfyvfox-7" target="wH5RqpElglhxuyfyvfox-5" edge="1">
          <mxGeometry relative="1" as="geometry" />
        </mxCell>
        <mxCell id="wH5RqpElglhxuyfyvfox-7" value="&lt;h4 style=&quot;margin: 1.357em 0px 0px; padding: 0px; font-size: 16px; line-height: 1.428; color: rgb(23, 43, 77); letter-spacing: -0.003em; font-family: -apple-system, BlinkMacSystemFont, &amp;quot;Segoe UI&amp;quot;, Roboto, Oxygen, Ubuntu, &amp;quot;Fira Sans&amp;quot;, &amp;quot;Droid Sans&amp;quot;, &amp;quot;Helvetica Neue&amp;quot;, sans-serif;&quot; data-renderer-start-pos=&quot;2204&quot; id=&quot;Multi-objective-optimization&quot;&gt;Multi-objective optimization&lt;/h4&gt;" style="rounded=0;whiteSpace=wrap;html=1;hachureGap=4;fillColor=#d5e8d4;strokeColor=#82b366;align=center;" parent="1" vertex="1">
          <mxGeometry x="637" y="1119" width="202" height="131" as="geometry" />
        </mxCell>
        <mxCell id="wH5RqpElglhxuyfyvfox-8" value="&lt;h4 style=&quot;margin: 1.357em 0px 0px; padding: 0px; font-size: 16px; line-height: 1.428; color: rgb(23, 43, 77); letter-spacing: -0.003em; font-family: -apple-system, BlinkMacSystemFont, &amp;quot;Segoe UI&amp;quot;, Roboto, Oxygen, Ubuntu, &amp;quot;Fira Sans&amp;quot;, &amp;quot;Droid Sans&amp;quot;, &amp;quot;Helvetica Neue&amp;quot;, sans-serif; text-align: start;&quot; data-renderer-start-pos=&quot;2243&quot; id=&quot;Meta-optimization&quot;&gt;Meta-optimization&lt;/h4&gt;" style="rounded=0;whiteSpace=wrap;html=1;hachureGap=4;fillColor=#d5e8d4;strokeColor=#82b366;" parent="1" vertex="1">
          <mxGeometry x="633" y="769" width="201" height="154" as="geometry" />
        </mxCell>
        <mxCell id="9oQ9O6FbsVemTm-6UywY-13" style="edgeStyle=none;curved=1;rounded=0;orthogonalLoop=1;jettySize=auto;html=1;exitX=0.5;exitY=0;exitDx=0;exitDy=0;entryX=1;entryY=0.75;entryDx=0;entryDy=0;endArrow=open;startSize=14;endSize=14;sourcePerimeterSpacing=8;targetPerimeterSpacing=8;" parent="1" source="9oQ9O6FbsVemTm-6UywY-1" target="wH5RqpElglhxuyfyvfox-8" edge="1">
          <mxGeometry relative="1" as="geometry" />
        </mxCell>
        <mxCell id="9oQ9O6FbsVemTm-6UywY-1" value="&lt;h4 style=&quot;margin: 10px 0px 0px; padding: 0px; font-size: 16px; line-height: 1.428; color: rgb(23, 43, 77); letter-spacing: -0.003em; font-family: -apple-system, BlinkMacSystemFont, &amp;quot;Segoe UI&amp;quot;, Roboto, Oxygen, Ubuntu, &amp;quot;Fira Sans&amp;quot;, &amp;quot;Droid Sans&amp;quot;, &amp;quot;Helvetica Neue&amp;quot;, sans-serif;&quot; data-renderer-start-pos=&quot;2320&quot; id=&quot;Contracts-as-routing-constraints&quot;&gt;Contracts as routing constraints&lt;/h4&gt;" style="rounded=0;whiteSpace=wrap;html=1;hachureGap=4;fillColor=#fff2cc;strokeColor=#d6b656;align=center;" parent="1" vertex="1">
          <mxGeometry x="923" y="945" width="202" height="122" as="geometry" />
        </mxCell>
        <mxCell id="9oQ9O6FbsVemTm-6UywY-9" style="edgeStyle=none;curved=1;rounded=0;orthogonalLoop=1;jettySize=auto;html=1;exitX=0.5;exitY=0;exitDx=0;exitDy=0;entryX=0.5;entryY=1;entryDx=0;entryDy=0;endArrow=open;startSize=14;endSize=14;sourcePerimeterSpacing=8;targetPerimeterSpacing=8;" parent="1" source="9oQ9O6FbsVemTm-6UywY-4" target="9oQ9O6FbsVemTm-6UywY-5" edge="1">
          <mxGeometry relative="1" as="geometry" />
        </mxCell>
        <mxCell id="9oQ9O6FbsVemTm-6UywY-4" value="&lt;h4 style=&quot;margin: 10px 0px 0px; padding: 0px; font-size: 16px; line-height: 1.428; color: rgb(23, 43, 77); letter-spacing: -0.003em; font-family: -apple-system, BlinkMacSystemFont, &amp;quot;Segoe UI&amp;quot;, Roboto, Oxygen, Ubuntu, &amp;quot;Fira Sans&amp;quot;, &amp;quot;Droid Sans&amp;quot;, &amp;quot;Helvetica Neue&amp;quot;, sans-serif;&quot; data-renderer-start-pos=&quot;2412&quot; id=&quot;Vector-HSML-and--hyperspace-scene-graphs&quot;&gt;Vector HSML and  hyperspace scene graphs &lt;/h4&gt;" style="rounded=0;whiteSpace=wrap;html=1;hachureGap=4;fillColor=#e1d5e7;strokeColor=#9673a6;align=center;" parent="1" vertex="1">
          <mxGeometry x="303" y="1308" width="206" height="154" as="geometry" />
        </mxCell>
        <mxCell id="9oQ9O6FbsVemTm-6UywY-10" style="edgeStyle=none;curved=1;rounded=0;orthogonalLoop=1;jettySize=auto;html=1;exitX=0.5;exitY=0;exitDx=0;exitDy=0;entryX=0;entryY=0.903;entryDx=0;entryDy=0;endArrow=open;startSize=14;endSize=14;sourcePerimeterSpacing=8;targetPerimeterSpacing=8;entryPerimeter=0;" parent="1" source="9oQ9O6FbsVemTm-6UywY-5" target="wH5RqpElglhxuyfyvfox-8" edge="1">
          <mxGeometry relative="1" as="geometry">
            <mxPoint x="406" y="1051" as="targetPoint" />
          </mxGeometry>
        </mxCell>
        <mxCell id="9oQ9O6FbsVemTm-6UywY-5" value="&lt;h4 style=&quot;margin: 1.357em 0px 0px; padding: 0px; font-size: 16px; line-height: 1.428; color: rgb(23, 43, 77); letter-spacing: -0.003em; font-family: -apple-system, BlinkMacSystemFont, &amp;quot;Segoe UI&amp;quot;, Roboto, Oxygen, Ubuntu, &amp;quot;Fira Sans&amp;quot;, &amp;quot;Droid Sans&amp;quot;, &amp;quot;Helvetica Neue&amp;quot;, sans-serif; text-align: start;&quot; data-renderer-start-pos=&quot;2463&quot; id=&quot;Sensor-fusion&quot;&gt;Sensor fusion&lt;/h4&gt;" style="rounded=0;whiteSpace=wrap;html=1;hachureGap=4;fillColor=#e1d5e7;strokeColor=#9673a6;" parent="1" vertex="1">
          <mxGeometry x="296" y="1115.5" width="220" height="140" as="geometry" />
        </mxCell>
        <mxCell id="6fWxtNXXJk7NK1VFURIJ-6" value="" style="whiteSpace=wrap;html=1;aspect=fixed;labelBackgroundColor=#FFFFFF;fillColor=#e1d5e7;strokeColor=#9673a6;" parent="1" vertex="1">
          <mxGeometry x="81" y="467" width="80" height="80" as="geometry" />
        </mxCell>
        <mxCell id="6fWxtNXXJk7NK1VFURIJ-8" value="&lt;b&gt;&lt;font style=&quot;font-size: 24px;&quot;&gt;DIGITAL&lt;br&gt;TWINS&lt;/font&gt;&lt;br&gt;&lt;/b&gt;" style="text;html=1;resizable=0;autosize=1;align=center;verticalAlign=middle;points=[];fillColor=none;strokeColor=none;rounded=0;labelBackgroundColor=#FFFFFF;" parent="1" vertex="1">
          <mxGeometry x="163" y="473" width="113" height="68" as="geometry" />
        </mxCell>
        <mxCell id="6fWxtNXXJk7NK1VFURIJ-9" value="" style="whiteSpace=wrap;html=1;aspect=fixed;labelBackgroundColor=#FFFFFF;fillColor=#fff2cc;strokeColor=#d6b656;" parent="1" vertex="1">
          <mxGeometry x="81" y="658" width="80" height="80" as="geometry" />
        </mxCell>
        <mxCell id="6fWxtNXXJk7NK1VFURIJ-10" value="&lt;b&gt;&lt;font size=&quot;5&quot;&gt;ROUTING&lt;/font&gt;&lt;br&gt;&lt;/b&gt;" style="text;html=1;resizable=0;autosize=1;align=center;verticalAlign=middle;points=[];fillColor=none;strokeColor=none;rounded=0;labelBackgroundColor=#FFFFFF;" parent="1" vertex="1">
          <mxGeometry x="165" y="676" width="129" height="40" as="geometry" />
        </mxCell>
        <mxCell id="6fWxtNXXJk7NK1VFURIJ-11" value="" style="whiteSpace=wrap;html=1;aspect=fixed;labelBackgroundColor=#FFFFFF;fillColor=#d5e8d4;strokeColor=#82b366;" parent="1" vertex="1">
          <mxGeometry x="81" y="753" width="80" height="80" as="geometry" />
        </mxCell>
        <mxCell id="6fWxtNXXJk7NK1VFURIJ-12" value="&lt;b&gt;&lt;font size=&quot;5&quot;&gt;OPTIMIZATION&lt;/font&gt;&lt;br&gt;&lt;/b&gt;" style="text;html=1;resizable=0;autosize=1;align=center;verticalAlign=middle;points=[];fillColor=none;strokeColor=none;rounded=0;labelBackgroundColor=#FFFFFF;" parent="1" vertex="1">
          <mxGeometry x="172" y="775" width="189" height="40" as="geometry" />
        </mxCell>
        <mxCell id="6fWxtNXXJk7NK1VFURIJ-15" value="" style="whiteSpace=wrap;html=1;aspect=fixed;labelBackgroundColor=#FFFFFF;fillColor=#dae8fc;strokeColor=#6c8ebf;" parent="1" vertex="1">
          <mxGeometry x="81" y="848" width="80" height="80" as="geometry" />
        </mxCell>
        <mxCell id="6fWxtNXXJk7NK1VFURIJ-16" value="&lt;b&gt;&lt;font size=&quot;5&quot;&gt;SDNS&lt;/font&gt;&lt;br&gt;&lt;/b&gt;" style="text;html=1;resizable=0;autosize=1;align=center;verticalAlign=middle;points=[];fillColor=none;strokeColor=none;rounded=0;labelBackgroundColor=#FFFFFF;" parent="1" vertex="1">
          <mxGeometry x="174.5" y="868" width="85" height="40" as="geometry" />
        </mxCell>
        <mxCell id="6fWxtNXXJk7NK1VFURIJ-18" value="" style="rounded=0;whiteSpace=wrap;html=1;labelBackgroundColor=#FFFFFF;fontSize=24;fillColor=#ffe6cc;strokeColor=#d79b00;" parent="1" vertex="1">
          <mxGeometry x="1121.5" y="945" width="28.5" height="122" as="geometry" />
        </mxCell>
        <mxCell id="6fWxtNXXJk7NK1VFURIJ-19" value="" style="rounded=0;whiteSpace=wrap;html=1;labelBackgroundColor=#FFFFFF;fontSize=24;fillColor=#ffe6cc;strokeColor=#d79b00;" parent="1" vertex="1">
          <mxGeometry x="1121.5" y="1126.5" width="28.5" height="127.5" as="geometry" />
        </mxCell>
        <mxCell id="6fWxtNXXJk7NK1VFURIJ-20" value="" style="whiteSpace=wrap;html=1;aspect=fixed;labelBackgroundColor=#FFFFFF;fillColor=#ffe6cc;strokeColor=#d79b00;" parent="1" vertex="1">
          <mxGeometry x="81" y="562" width="80" height="80" as="geometry" />
        </mxCell>
        <mxCell id="6fWxtNXXJk7NK1VFURIJ-21" value="&lt;b&gt;&lt;font size=&quot;5&quot;&gt;CONTRACTS&lt;/font&gt;&lt;br&gt;&lt;/b&gt;" style="text;html=1;resizable=0;autosize=1;align=center;verticalAlign=middle;points=[];fillColor=none;strokeColor=none;rounded=0;labelBackgroundColor=#FFFFFF;" parent="1" vertex="1">
          <mxGeometry x="174.5" y="582" width="169" height="40" as="geometry" />
        </mxCell>
        <mxCell id="H9n6U4F_JUF5psmvlT6x-1" value="&lt;h4 style=&quot;margin: 1.357em 0px 0px; padding: 0px; font-size: 16px; line-height: 1.428; color: rgb(23, 43, 77); letter-spacing: -0.003em; font-family: -apple-system, BlinkMacSystemFont, &amp;quot;Segoe UI&amp;quot;, Roboto, Oxygen, Ubuntu, &amp;quot;Fira Sans&amp;quot;, &amp;quot;Droid Sans&amp;quot;, &amp;quot;Helvetica Neue&amp;quot;, sans-serif; text-align: start;&quot; data-renderer-start-pos=&quot;2463&quot; id=&quot;Sensor-fusion&quot;&gt;Data fusion&lt;/h4&gt;" style="rounded=0;whiteSpace=wrap;html=1;hachureGap=4;fillColor=#e1d5e7;strokeColor=#9673a6;" vertex="1" parent="1">
          <mxGeometry x="48" y="1114" width="220" height="140" as="geometry" />
        </mxCell>
        <mxCell id="H9n6U4F_JUF5psmvlT6x-2" value="&lt;h4 style=&quot;margin: 1.357em 0px 0px; padding: 0px; font-size: 16px; line-height: 1.428; color: rgb(23, 43, 77); letter-spacing: -0.003em; font-family: -apple-system, BlinkMacSystemFont, &amp;quot;Segoe UI&amp;quot;, Roboto, Oxygen, Ubuntu, &amp;quot;Fira Sans&amp;quot;, &amp;quot;Droid Sans&amp;quot;, &amp;quot;Helvetica Neue&amp;quot;, sans-serif;&quot; data-renderer-start-pos=&quot;2159&quot; id=&quot;Separation-of-spatial-/-time-scales&quot;&gt;Hyperspatial querying&lt;/h4&gt;" style="rounded=0;whiteSpace=wrap;html=1;hachureGap=4;fillColor=#d5e8d4;strokeColor=#82b366;align=center;" vertex="1" parent="1">
          <mxGeometry x="39" y="1308" width="218" height="156" as="geometry" />
        </mxCell>
        <mxCell id="H9n6U4F_JUF5psmvlT6x-3" style="edgeStyle=none;curved=1;rounded=0;orthogonalLoop=1;jettySize=auto;html=1;exitX=0.542;exitY=-0.001;exitDx=0;exitDy=0;entryX=0.5;entryY=1;entryDx=0;entryDy=0;endArrow=open;startSize=14;endSize=14;sourcePerimeterSpacing=8;targetPerimeterSpacing=8;exitPerimeter=0;" edge="1" parent="1" source="H9n6U4F_JUF5psmvlT6x-2" target="H9n6U4F_JUF5psmvlT6x-1">
          <mxGeometry relative="1" as="geometry">
            <mxPoint x="416" y="1318" as="sourcePoint" />
            <mxPoint x="416" y="1265.5" as="targetPoint" />
          </mxGeometry>
        </mxCell>
        <mxCell id="H9n6U4F_JUF5psmvlT6x-4" style="edgeStyle=none;curved=1;rounded=0;orthogonalLoop=1;jettySize=auto;html=1;exitX=0.5;exitY=0;exitDx=0;exitDy=0;entryX=-0.011;entryY=0.808;entryDx=0;entryDy=0;endArrow=open;startSize=14;endSize=14;sourcePerimeterSpacing=8;targetPerimeterSpacing=8;entryPerimeter=0;" edge="1" parent="1" source="H9n6U4F_JUF5psmvlT6x-1" target="wH5RqpElglhxuyfyvfox-8">
          <mxGeometry relative="1" as="geometry">
            <mxPoint x="416" y="1125.5" as="sourcePoint" />
            <mxPoint x="643" y="918.0619999999999" as="targetPoint" />
          </mxGeometry>
        </mxCell>
        <mxCell id="H9n6U4F_JUF5psmvlT6x-5" style="edgeStyle=none;curved=1;rounded=0;orthogonalLoop=1;jettySize=auto;html=1;exitX=0.5;exitY=0;exitDx=0;exitDy=0;entryX=0.5;entryY=1;entryDx=0;entryDy=0;endArrow=open;startSize=14;endSize=14;sourcePerimeterSpacing=8;targetPerimeterSpacing=8;" edge="1" parent="1" source="wH5RqpElglhxuyfyvfox-8" target="wH5RqpElglhxuyfyvfox-1">
          <mxGeometry relative="1" as="geometry">
            <mxPoint x="1034" y="955" as="sourcePoint" />
            <mxPoint x="844" y="894.5" as="targetPoint" />
          </mxGeometry>
        </mxCell>
      </root>
    </mxGraphModel>
  </diagram>
</mxfile>
